<?xml version="1.0" standalone="no"?>
<!DOCTYPE svg PUBLIC "-//W3C//DTD SVG 20010904//EN"
 "http://www.w3.org/TR/2001/REC-SVG-20010904/DTD/svg10.dtd">
<svg version="1.0" xmlns="http://www.w3.org/2000/svg"
 width="650.000000pt" height="650.000000pt" viewBox="0 0 650.000000 650.000000"
 preserveAspectRatio="xMidYMid meet">

<g transform="translate(0.000000,650.000000) scale(0.100000,-0.100000)"
fill="#000000" stroke="none">
<path d="M3169 6136 c-106 -28 -211 -122 -250 -224 -30 -78 -30 -186 0 -264
30 -78 106 -159 184 -198 285 -140 603 131 512 437 -55 185 -260 299 -446 249z
m236 -41 c66 -32 139 -109 173 -183 35 -76 38 -202 5 -274 -30 -66 -105 -143
-172 -175 -48 -24 -68 -28 -141 -28 -73 0 -93 4 -141 28 -70 34 -142 109 -177
185 -35 76 -38 202 -5 274 25 54 90 128 141 160 88 54 222 60 317 13z"/>
<path d="M3010 5050 c-502 -62 -986 -296 -1340 -650 -359 -359 -594 -849 -649
-1352 -14 -125 -14 -371 0 -496 84 -767 560 -1443 1254 -1783 313 -153 638
-228 990 -229 381 0 705 77 1037 246 604 309 1042 883 1181 1549 35 163 47
286 47 465 0 179 -12 302 -47 465 -186 891 -871 1566 -1781 1756 -135 28 -166
31 -382 34 -129 2 -269 0 -310 -5z m300 -30 c0 -24 -114 -234 -178 -331 -308
-459 -766 -640 -1287 -507 -150 38 -232 10 -281 -96 -47 -101 -20 -205 67
-258 78 -47 363 -98 546 -98 43 0 127 7 186 15 345 46 639 196 896 459 52 53
95 95 96 94 1 -2 12 -48 24 -103 13 -55 63 -260 111 -455 49 -195 98 -396 109
-447 l21 -92 -80 -111 c-215 -301 -371 -608 -490 -970 -205 -619 -239 -1150
-94 -1479 13 -29 24 -55 24 -58 0 -13 -270 47 -397 88 -839 273 -1433 1000
-1533 1874 -13 118 -13 380 1 503 63 576 361 1120 814 1485 384 310 872 489
1353 496 56 0 92 -3 92 -9z m575 -76 c366 -106 706 -306 963 -567 l74 -74 -89
-54 c-140 -84 -312 -201 -461 -314 -132 -100 -200 -157 -370 -313 l-80 -72
-61 247 c-99 408 -149 706 -170 1013 -6 74 -13 146 -17 159 -7 23 -6 24 42 16
27 -4 103 -22 169 -41z m1378 -1141 c123 -247 198 -497 226 -755 14 -123 14
-385 1 -503 -70 -610 -388 -1166 -877 -1534 -105 -79 -267 -181 -288 -181 -9
0 -8 20 1 79 39 245 23 587 -46 1004 l-20 118 49 57 c27 31 72 84 101 117 76
89 202 197 320 275 58 38 122 80 142 94 156 106 34 380 -156 352 -76 -12 -285
-151 -453 -303 -85 -77 -93 -82 -98 -61 -3 13 -21 95 -41 183 -19 88 -46 203
-59 255 l-24 95 127 129 c263 265 526 470 879 682 59 35 113 64 120 64 6 0 50
-75 96 -167z m-1523 -1150 c0 -5 18 -102 39 -218 45 -238 83 -498 106 -725 23
-216 31 -637 16 -770 -15 -127 -51 -244 -88 -288 -26 -30 -37 -34 -133 -51
-202 -36 -210 -36 -252 -1 -44 36 -91 128 -115 225 -28 109 -25 509 6 705 42
280 125 564 235 809 86 191 185 359 186 314z"/>
</g>
</svg>
